<?xml version="1.0" encoding="iso-8859-1"?>
<!-- Generator: Adobe Illustrator 19.0.0, SVG Export Plug-In . SVG Version: 6.00 Build 0)  -->
<svg version="1.1" id="Capa_1" xmlns="http://www.w3.org/2000/svg" xmlns:xlink="http://www.w3.org/1999/xlink" x="0px" y="0px"
	 viewBox="0 0 511.998 511.998" style="enable-background:new 0 0 511.998 511.998;" xml:space="preserve">
<g>
	<g>
		<g>
			<path d="M261.311,147.274c20.836,0,37.786-16.951,37.786-37.785s-16.951-37.786-37.786-37.786
				c-20.835,0-37.785,16.951-37.785,37.786C223.526,130.323,240.477,147.274,261.311,147.274z M261.311,86.702
				c12.565,0,22.786,10.222,22.786,22.786c0,12.564-10.223,22.786-22.786,22.786s-22.786-10.222-22.786-22.786
				C238.526,96.924,248.746,86.702,261.311,86.702z"/>
			<path d="M118.889,434.02c-28.992-21.357-52.996-49.52-69.417-81.444C32.51,319.6,23.683,282.534,23.946,245.385
				c0.435-61.632,24.765-119.506,68.51-162.962C136.221,38.946,194.3,15.002,255.992,15c36.395-0.001,71.346,8.374,103.886,24.89
				c3.695,1.875,8.208,0.401,10.082-3.293c1.875-3.693,0.4-8.208-3.293-10.082C332.005,8.92,294.768-0.001,255.992,0
				C190.312,0.002,128.479,25.494,81.884,71.781C35.313,118.045,9.41,179.661,8.947,245.28
				c-0.279,39.562,9.122,79.037,27.186,114.158c17.475,33.971,43.015,63.938,73.859,86.66c1.339,0.986,2.897,1.462,4.442,1.462
				c2.302,0,4.574-1.057,6.044-3.052C122.936,441.172,122.224,436.477,118.889,434.02z"/>
			<path d="M446.258,404.663c36.419-43.917,56.591-99.564,56.798-156.691c0.288-79.447-38.595-154.882-104.013-201.786
				c-3.364-2.412-8.052-1.642-10.465,1.725c-2.414,3.366-1.642,8.052,1.725,10.465c61.48,44.081,98.023,114.938,97.753,189.54
				c-0.194,53.658-19.14,105.924-53.344,147.17c-9.26,11.164-15.515,24.315-18.089,38.033c-2.041,10.877-4.137,27.268,1.208,43.965
				c1.752,5.476,0.401,11.21-3.612,15.338c-3.912,4.024-9.443,5.501-14.798,3.951c-15.415-4.461-31.14-11.213-45.478-19.528
				c-11.866-6.881-25.793-8.743-39.221-5.237c-19.867,5.186-40.455,7.702-61.154,7.495c-36.964-0.379-72.262-9.275-104.913-26.44
				c-3.671-1.929-8.202-0.517-10.129,3.148c-1.928,3.666-0.518,8.201,3.148,10.129c34.778,18.284,72.372,27.758,111.739,28.162
				c22.057,0.216,43.944-2.458,65.098-7.98c9.573-2.499,19.485-1.185,27.907,3.699c15.377,8.918,32.262,16.166,48.832,20.961
				c2.823,0.817,5.668,1.216,8.474,1.216c7.895-0.001,15.463-3.169,21.249-9.12c7.825-8.048,10.563-19.684,7.143-30.366
				c-3.324-10.385-3.556-21.681-0.751-36.625C433.471,424.669,438.62,413.872,446.258,404.663z"/>
			<path d="M183.8,361.716v7.528c0,14.331,11.659,25.99,25.989,25.99h103.043c14.332,0,25.99-11.66,25.99-25.99v-7.528
				c0-14.332-11.659-25.99-25.99-25.99h-13.736v-144.05c0-8.614-4.292-16.589-11.48-21.335c-7.188-4.745-16.207-5.557-24.127-2.171
				c-12.424,5.31-25.562,8.341-39.056,9.011l-23.64,1.173c-9.529,0.473-16.994,8.318-16.994,17.859v14.787
				c0,9.86,8.021,17.881,17.881,17.881h20.743c0.608,0,1.103,0.495,1.103,1.103v105.744h-13.737v-0.001
				C195.459,335.726,183.8,347.385,183.8,361.716z M231.025,350.725c4.143,0,7.5-3.358,7.5-7.5V229.982
				c0.001-8.879-7.223-16.102-16.102-16.102H201.68c-1.589,0-2.881-1.292-2.881-2.881v-14.787c0-1.538,1.203-2.802,2.738-2.878
				l23.639-1.173c15.271-0.758,30.145-4.189,44.207-10.199c3.32-1.42,6.954-1.093,9.969,0.897c3.015,1.99,4.744,5.203,4.744,8.816
				v151.55c0,4.142,3.358,7.5,7.5,7.5h21.236c6.06,0,10.991,4.93,10.991,10.991v7.528c0,6.06-4.931,10.991-10.991,10.991H209.789
				c-6.059,0-10.99-4.931-10.99-10.991v-7.528c0-6.061,4.931-10.991,10.99-10.991H231.025z"/>
		</g>
	</g>
</g>
<g>
</g>
<g>
</g>
<g>
</g>
<g>
</g>
<g>
</g>
<g>
</g>
<g>
</g>
<g>
</g>
<g>
</g>
<g>
</g>
<g>
</g>
<g>
</g>
<g>
</g>
<g>
</g>
<g>
</g>
</svg>
