<svg id="Layer_1" enable-background="new 0 0 512.055 512.055" height="512" viewBox="0 0 512.055 512.055" width="512" xmlns="http://www.w3.org/2000/svg"><path d="m437.065 74.989c-48.356-48.357-112.651-74.989-181.038-74.989s-132.681 26.632-181.038 74.989-74.989 112.651-74.989 181.038 26.632 132.681 74.989 181.039c48.356 48.357 112.651 74.988 181.038 74.988s132.682-26.631 181.038-74.988c48.357-48.357 74.989-112.651 74.989-181.039s-26.631-132.681-74.989-181.038zm-73.169 166.038c4.535-49.187 31.167-93.932 72.383-121.414 26.701 35.13 42.385 77.029 45.274 121.414zm117.657 30c-2.889 44.384-18.573 86.283-45.274 121.414-41.215-27.482-67.848-72.227-72.383-121.414zm-65.102-174.212c-47.69 33.187-78.146 86.225-82.658 144.212h-62.765v-210.525c54.728 3.562 105.69 26.564 144.825 65.7.202.202.397.41.598.613zm-175.424-66.313v210.525h-62.765c-4.512-57.987-34.969-111.025-82.658-144.212.202-.203.396-.411.599-.613 39.134-39.135 90.097-62.137 144.824-65.7zm-210.525 210.525c2.889-44.384 18.573-86.283 45.275-121.414 41.215 27.482 67.848 72.227 72.383 121.414zm117.657 30c-4.535 49.187-31.167 93.932-72.383 121.414-26.701-35.13-42.385-77.029-45.275-121.414zm-52.555 144.212c47.69-33.187 78.146-86.225 82.658-144.212h62.765v210.525c-54.728-3.562-105.69-26.564-144.825-65.7-.202-.202-.397-.41-.598-.613zm175.423 66.313v-210.525h62.765c4.512 57.987 34.969 111.025 82.658 144.212-.202.203-.396.411-.599.613-39.133 39.136-90.096 62.138-144.824 65.7z"/></svg>