<svg height="426pt" viewBox="-21 0 426 426.66667" width="426pt" xmlns="http://www.w3.org/2000/svg"><path d="m90.996094 426.667969c-8.832032 0-16-7.167969-16-16v-394.667969c0-8.832031 7.167968-16 16-16 8.832031 0 16 7.167969 16 16v394.667969c0 8.832031-7.167969 16-16 16zm0 0"/><path d="m90.996094 426.667969c-4.097656 0-8.195313-1.558594-11.308594-4.695313l-74.667969-74.664062c-6.25-6.253906-6.25-16.386719 0-22.636719 6.253907-6.25 16.386719-6.25 22.636719 0l63.359375 63.359375 63.359375-63.359375c6.25-6.25 16.386719-6.25 22.636719 0s6.25 16.382813 0 22.636719l-74.667969 74.664062c-3.15625 3.136719-7.253906 4.695313-11.347656 4.695313zm0 0"/><path d="m330.996094 170.667969c-8.832032 0-16-7.167969-16-16v-122.667969h-21.335938c-8.832031 0-16-7.167969-16-16s7.167969-16 16-16h37.335938c8.832031 0 16 7.167969 16 16v138.667969c0 8.832031-7.167969 16-16 16zm0 0"/><path d="m346.996094 426.667969h-53.335938c-8.832031 0-16-7.167969-16-16s7.167969-16 16-16h53.335938c2.941406 0 5.332031-2.390625 5.332031-5.335938v-26.664062h-37.332031c-20.589844 0-37.335938-16.746094-37.335938-37.335938v-32c0-20.585937 16.746094-37.332031 37.335938-37.332031h32c20.585937 0 37.332031 16.746094 37.332031 37.332031v96c0 20.589844-16.746094 37.335938-37.332031 37.335938zm-32-138.667969c-2.945313 0-5.335938 2.390625-5.335938 5.332031v32c0 2.945313 2.390625 5.335938 5.335938 5.335938h37.332031v-37.335938c0-2.941406-2.390625-5.332031-5.332031-5.332031zm0 0"/><path d="m368.328125 170.667969h-74.667969c-8.832031 0-16-7.167969-16-16s7.167969-16 16-16h74.667969c8.832031 0 16 7.167969 16 16s-7.167969 16-16 16zm0 0"/></svg>