<svg id="Capa_1" enable-background="new 0 0 512 512" height="512" viewBox="0 0 512 512" width="512" xmlns="http://www.w3.org/2000/svg"><g><path d="m382.147 9.853h90v150h-90z" transform="matrix(.707 -.707 .707 .707 65.108 326.892)"/><path d="m61.65 351.712-23.571 61.283 60.926 60.926 61.284-23.571z"/><path d="m122.683 281.885h282.144v60h-282.144z" transform="matrix(.707 -.707 .707 .707 -143.284 277.851)"/><path d="m26.294 443.635-26.294 68.365 68.365-26.294z"/><path d="m59.043 218.245h282.144v60h-282.144z" transform="matrix(.707 -.707 .707 .707 -116.924 214.212)"/><path d="m348.507 73.493h30v150h-30z" transform="matrix(.707 -.707 .707 .707 1.469 300.531)"/></g></svg>